<svg width="28" height="28" viewBox="0 0 28 28" fill="none" xmlns="http://www.w3.org/2000/svg">
<g filter="url(#filter0_d)">
<path d="M14.0009 0C11.2851 0 10.9442 0.0118752 9.87756 0.0604169C8.81297 0.109167 8.08629 0.277708 7.45045 0.525C6.79274 0.780417 6.23481 1.12208 5.67898 1.67813C5.12272 2.23396 4.78105 2.79187 4.5248 3.44937C4.27688 4.08542 4.10813 4.81229 4.06021 5.87646C4.0125 6.94312 4 7.28417 4 10C4 12.7158 4.01208 13.0556 4.06042 14.1223C4.10938 15.1869 4.27792 15.9135 4.52501 16.5494C4.78063 17.2071 5.1223 17.765 5.67835 18.3208C6.23398 18.8771 6.7919 19.2196 7.4492 19.475C8.08546 19.7223 8.81234 19.8908 9.87673 19.9396C10.9434 19.9881 11.284 20 13.9997 20C16.7158 20 17.0556 19.9881 18.1222 19.9396C19.1868 19.8908 19.9143 19.7223 20.5506 19.475C21.2081 19.2196 21.7652 18.8771 22.3208 18.3208C22.8771 17.765 23.2187 17.2071 23.475 16.5496C23.7208 15.9135 23.8896 15.1867 23.9396 14.1225C23.9875 13.0558 24 12.7158 24 10C24 7.28417 23.9875 6.94333 23.9396 5.87667C23.8896 4.81208 23.7208 4.08542 23.475 3.44958C23.2187 2.79187 22.8771 2.23396 22.3208 1.67813C21.7646 1.12188 21.2083 0.780208 20.55 0.525C19.9125 0.277708 19.1854 0.109167 18.1208 0.0604169C17.0541 0.0118752 16.7145 0 13.9978 0H14.0009ZM13.1038 1.80208C13.3701 1.80167 13.6672 1.80208 14.0009 1.80208C16.671 1.80208 16.9874 1.81167 18.0418 1.85958C19.0168 1.90417 19.546 2.06708 19.8985 2.20396C20.3652 2.38521 20.6979 2.60187 21.0477 2.95187C21.3977 3.30187 21.6143 3.63521 21.796 4.10187C21.9329 4.45396 22.096 4.98312 22.1404 5.95812C22.1883 7.01229 22.1987 7.32896 22.1987 9.99771C22.1987 12.6665 22.1883 12.9831 22.1404 14.0373C22.0958 15.0123 21.9329 15.5415 21.796 15.8935C21.6148 16.3602 21.3977 16.6925 21.0477 17.0423C20.6977 17.3923 20.3654 17.609 19.8985 17.7902C19.5464 17.9277 19.0168 18.0902 18.0418 18.1348C16.9876 18.1827 16.671 18.1931 14.0009 18.1931C11.3307 18.1931 11.0142 18.1827 9.96006 18.1348C8.98505 18.0898 8.45588 17.9269 8.10317 17.79C7.6365 17.6087 7.30316 17.3921 6.95316 17.0421C6.60315 16.6921 6.38648 16.3596 6.20481 15.8927C6.06794 15.5406 5.90481 15.0115 5.86044 14.0365C5.81252 12.9823 5.80294 12.6656 5.80294 9.99521C5.80294 7.32479 5.81252 7.00979 5.86044 5.95563C5.90502 4.98063 6.06794 4.45146 6.20481 4.09896C6.38607 3.63229 6.60315 3.29896 6.95316 2.94896C7.30316 2.59896 7.6365 2.38229 8.10317 2.20062C8.45567 2.06312 8.98505 1.90063 9.96006 1.85583C10.8826 1.81417 11.2401 1.80167 13.1038 1.79958V1.80208ZM19.3389 3.4625C18.6764 3.4625 18.1389 3.99937 18.1389 4.66208C18.1389 5.32458 18.6764 5.86208 19.3389 5.86208C20.0014 5.86208 20.5389 5.32458 20.5389 4.66208C20.5389 3.99958 20.0014 3.46208 19.3389 3.46208V3.4625ZM14.0009 4.86458C11.1649 4.86458 8.86547 7.16396 8.86547 10C8.86547 12.836 11.1649 15.1344 14.0009 15.1344C16.837 15.1344 19.1356 12.836 19.1356 10C19.1356 7.16396 16.8368 4.86458 14.0007 4.86458H14.0009ZM14.0009 6.66667C15.8418 6.66667 17.3343 8.15896 17.3343 10C17.3343 11.8408 15.8418 13.3333 14.0009 13.3333C12.1599 13.3333 10.6676 11.8408 10.6676 10C10.6676 8.15896 12.1599 6.66667 14.0009 6.66667Z" fill="#FFC89A"/>
<path d="M7.63169 0.990997L7.63145 0.991089C7.03364 1.22324 6.5358 1.52822 6.03259 2.03161L6.03239 2.03181C5.52884 2.53499 5.22373 3.03293 4.99067 3.63094L4.99066 3.63096C4.76498 4.20993 4.6055 4.88216 4.55971 5.8988L7.63169 0.990997ZM7.63169 0.990997C8.21065 0.765828 8.88292 0.606499 9.90029 0.5599L7.63169 0.990997ZM6.03184 17.9672L6.0321 17.9675C6.53529 18.4712 7.03319 18.7769 7.6303 19.009L7.63034 19.009C8.20978 19.2342 8.88231 19.3935 9.89946 19.4401C9.89951 19.4401 9.89956 19.4401 9.8996 19.4401L9.87673 19.9396C10.9434 19.9881 11.284 20 13.9997 20L6.03184 17.9672ZM6.03184 17.9672C5.52845 17.464 5.22344 16.9662 4.99105 16.3683L6.03184 17.9672ZM18.0645 1.3601L18.0647 1.36011C19.0948 1.40721 19.6774 1.58172 20.0795 1.73786L20.0795 1.73788C20.6102 1.94399 21.0019 2.19874 21.4012 2.59832C21.4013 2.59835 21.4013 2.59839 21.4013 2.59843L21.0477 2.95187L18.0645 1.3601ZM18.0645 1.3601C16.9985 1.31165 16.6729 1.30208 14.0009 1.30208C13.8861 1.30208 13.7754 1.30203 13.6686 1.30199C13.6468 1.30198 13.6253 1.30197 13.6038 1.30196V1.29902L13.1033 1.29958C11.2347 1.30167 10.8695 1.31425 9.9375 1.35634L9.93712 1.35636M18.0645 1.3601L9.93712 1.35636M18.0647 18.6343L18.0645 18.6343C16.9989 18.6827 16.6732 18.6931 14.0009 18.6931C11.3285 18.6931 11.003 18.6827 9.93736 18.6343L9.93701 18.6343C8.90692 18.5867 8.3245 18.4122 7.92228 18.2561L7.92215 18.2561C7.39164 18.05 6.99934 17.7954 6.5996 17.3956C6.20011 16.9961 5.94539 16.6048 5.73885 16.074L5.73879 16.0739C5.5826 15.6721 5.40784 15.0895 5.36095 14.0592L5.36095 14.0592C5.31251 12.9933 5.30294 12.6675 5.30294 9.99521C5.30294 7.32288 5.31251 6.99874 5.36095 5.93292L5.36096 5.93279C5.40806 4.90262 5.58257 4.3201 5.73872 3.91797L5.73873 3.91793C5.94488 3.38718 6.20006 2.99494 6.5996 2.5954C6.99926 2.19576 7.39139 1.9412 7.92147 1.73481L18.0647 18.6343ZM18.0647 18.6343C19.0942 18.5872 19.6774 18.4133 20.0801 18.2561L18.0647 18.6343ZM9.93712 1.35636C8.9076 1.40366 8.32466 1.57757 7.92179 1.73468L9.93712 1.35636ZM9.90043 0.559893C10.9553 0.51189 11.2875 0.500009 13.9978 0.5L9.90043 0.559893ZM14.0009 0.5C16.712 0.500009 17.043 0.51189 18.0979 0.559893L14.0009 0.5ZM19.3389 3.9625H19.3633C19.7384 3.97535 20.0389 4.28388 20.0389 4.66208C20.0389 5.04844 19.7253 5.36208 19.3389 5.36208C18.9525 5.36208 18.6389 5.04844 18.6389 4.66208C18.6389 4.2758 18.9523 3.9625 19.3389 3.9625ZM4.5 10C4.5 7.28715 4.51249 6.95456 4.5597 5.89895L4.55989 14.0993C4.51208 13.0441 4.5 12.7129 4.5 10ZM4.99104 16.3682C4.76603 15.7892 4.60669 15.1168 4.55989 14.0994L4.99104 16.3682ZM9.36547 10C9.36547 7.44018 11.4409 5.3647 14.0007 5.36458H14.0009C16.5607 5.36469 18.6356 7.44009 18.6356 10C18.6356 12.5599 16.5609 14.6344 14.0009 14.6344C11.4409 14.6344 9.36547 12.5598 9.36547 10ZM17.8343 10C17.8343 7.88279 16.1179 6.16667 14.0009 6.16667C11.8837 6.16667 10.1676 7.88281 10.1676 10C10.1676 12.117 11.8837 13.8333 14.0009 13.8333C16.1179 13.8333 17.8343 12.117 17.8343 10Z" stroke="#FFC89A"/>
</g>
<defs>
<filter id="filter0_d" x="0" y="0" width="28" height="28" filterUnits="userSpaceOnUse" color-interpolation-filters="sRGB">
<feFlood flood-opacity="0" result="BackgroundImageFix"/>
<feColorMatrix in="SourceAlpha" type="matrix" values="0 0 0 0 0 0 0 0 0 0 0 0 0 0 0 0 0 0 127 0" result="hardAlpha"/>
<feOffset dy="4"/>
<feGaussianBlur stdDeviation="2"/>
<feComposite in2="hardAlpha" operator="out"/>
<feColorMatrix type="matrix" values="0 0 0 0 0 0 0 0 0 0 0 0 0 0 0 0 0 0 0.25 0"/>
<feBlend mode="normal" in2="BackgroundImageFix" result="effect1_dropShadow"/>
<feBlend mode="normal" in="SourceGraphic" in2="effect1_dropShadow" result="shape"/>
</filter>
</defs>
</svg>
