<svg width="20" height="20" viewBox="0 0 20 20" fill="none" xmlns="http://www.w3.org/2000/svg">
<path d="M4.53941 20V6.50604H0.252902V20H4.53941ZM2.39671 4.66256C3.89149 4.66256 4.82192 3.62638 4.82192 2.3315C4.79407 1.00742 3.89155 0 2.42508 0C0.958834 0 0 1.00744 0 2.3315C0 3.62644 0.930201 4.66256 2.36873 4.66256H2.39658H2.39671ZM6.91198 20H11.1985V12.4643C11.1985 12.061 11.2263 11.6581 11.3395 11.3698C11.6494 10.5641 12.3547 9.7295 13.5388 9.7295C15.09 9.7295 15.7105 10.9669 15.7105 12.7809V19.9999H19.9967V12.2626C19.9967 8.11778 17.882 6.18924 15.0617 6.18924C12.7493 6.18924 11.734 7.54168 11.17 8.46282H11.1986V6.50576H6.91208C6.96833 7.77196 6.91208 19.9997 6.91208 19.9997L6.91198 20Z" fill="#FFC89A"/>
</svg>
